<svg xmlns="http://www.w3.org/2000/svg" version="1.1" xmlns:xlink="http://www.w3.org/1999/xlink" xmlns:svgjs="http://svgjs.dev/svgjs" viewBox="0 0 1920 1080"><rect width="1920" height="1080" fill="#204a87"></rect><g transform="matrix(7.04171909509728e-17,1.15,-1.15,7.04171909509728e-17,1540.9235076904297,-517.9120338439941)"><path d="M0,-1080C-7.738137777599017,-971.5179965950856,-37.097956198949554,-589.8633241627631,-46.4288266655941,-429.10797957051375C-55.75969713223865,-268.3526349782644,-60.045860383659814,-280.61704445781294,-55.9852227998673,-115.46793244650371C-51.92458521607479,49.68117956480552,-18.6091968078603,346.47181207858694,-22.065001162839025,561.7866924973416C-25.52080551781775,777.1015729160963,-69.34386525051065,1017.1801228037285,-76.72004892973965,1176.4213500660244C-84.09623260896865,1335.6625773283201,-79.10877805983634,1353.3042810821207,-66.32210323821306,1517.2340560711166C-53.53542841658979,1681.1638310601124,-11.05368387303551,2052.8723426785195,0,2160L 1920 2160 L 1920 -1080 Z" fill="url(&quot;#SvgjsLinearGradient2333&quot;)"></path><path d="M160,-1080C157.74144852898337,-950.5903481176794,158.79015374548578,-579.2938562121736,146.44869117390024,-303.542088706076C134.1072286023147,-27.790321199978393,94.05912637339343,315.3851251253773,85.95122457048669,574.5106050365857C77.84332276757995,833.6360849477942,85.45981778487426,986.9625582672725,97.80128035645981,1251.2107907611748C110.14274292804537,1515.4590232550772,149.63354672607664,2008.5351317935292,160,2160L 1920 2160 L 1920 -1080 Z" fill="url(&quot;#SvgjsLinearGradient2334&quot;)"></path><path d="M320,-1080C315.4614271828088,-1001.2129034899601,311.5119690599906,-775.8771601834345,292.7685630968527,-607.2774209397611C274.0251571337148,-438.6776816960877,193.00605119686355,-276.8613590358267,207.53956422117264,-68.4015645379593C222.07307724548173,140.05822995990806,343.86626836635594,462.7206363926807,379.96964124270727,643.481346047443C416.0730141190586,824.2420557022053,435.4323561640583,836.1906088408978,424.15980147928076,1016.1626933906149C412.8872467945032,1196.134777940332,329.6942800472553,1532.674302244182,312.33431313404185,1723.313853345746C294.9743462208284,1913.9534044473103,318.7223855223403,2087.218975557624,320,2160L 1920 2160 L 1920 -1080 Z" fill="url(&quot;#SvgjsLinearGradient2335&quot;)"></path><path d="M480,-1080C460.39887495961887,-1020.4450898656806,371.8398001962569,-865.6716062130514,362.39324975771314,-722.6705391940839C352.9466993191694,-579.6694721751163,386.0925373586231,-383.93216318128367,423.32069736873774,-221.9935978861945C460.5488573788524,-60.055032591105316,555.0862343151181,107.58372060624899,585.7622098184013,248.96085257645117C616.4381853216845,390.3379845466534,630.0567637267765,505.3556399412964,607.3765503884367,626.2691939350186C584.696337050097,747.1827479287408,489.4599965207684,866.2421937673329,449.68092978836273,974.4421765387847C409.90186305595705,1082.6421593102364,378.0030364219714,1159.209581998231,368.7021499940028,1275.4690905637294C359.40126356603423,1391.7285991292279,375.3259695528851,1524.577409692397,393.8756112205513,1671.9992279317753C412.4252528882175,1819.4210461711536,465.6459352034252,2078.666537988629,480,2160L 1920 2160 L 1920 -1080 Z" fill="url(&quot;#SvgjsLinearGradient2336&quot;)"></path><path d="M640,-1080C635.772061926575,-963.9792477730783,599.0318973491527,-585.5656849889265,614.6323715594499,-383.8754866384701C630.2328457697471,-182.18528828801368,742.2391706134371,-82.68594434195558,733.6028452617829,130.14119010273842C724.9665199101288,342.9683245474324,588.0073179368192,647.6427543616592,562.8144194495251,893.0873200296937C537.621520962231,1138.5318856977283,569.5811909129393,1391.6564707825612,582.4454543380184,1602.8085841109455C595.3097177630975,1813.9606974393298,630.4075757230031,2067.134764018491,640,2160L 1920 2160 L 1920 -1080 Z" fill="url(&quot;#SvgjsLinearGradient2337&quot;)"></path><path d="M800,-1080C793.6433230569589,-933.4111334477577,746.0704559511513,-469.452042296565,761.8599383417535,-200.46680068654666C777.6494207323557,68.5184409234717,902.3544087239228,293.46777907560306,894.7368943436129,533.9114496601103C887.119379963303,774.3551202446175,731.9443344504961,971.1804644305148,716.1548520598939,1242.1952228204964C700.3653696692917,1513.209981210478,786.0258086766489,2007.0325371367494,800,2160L 1920 2160 L 1920 -1080 Z" fill="url(&quot;#SvgjsLinearGradient2338&quot;)"></path><path d="M960,-1080C955.0055246494294,-1014.1594976578523,944.3162618803689,-841.4866323157189,930.0331478965762,-684.9569859471139C915.7500339127836,-528.427339578509,851.2286299384735,-301.1553621486828,874.3013160972439,-140.82212178837003C897.3740022560143,19.511118571942745,1061.4907677575823,120.9680858841688,1068.4692648491982,277.04245621476275C1075.4477619408142,433.11682654535673,928.5804194227676,649.4392080855724,916.1722986469395,795.6241001951937C903.7641778711113,941.808992304815,981.316868854732,1014.0086905579058,994.0205401942295,1154.1518088724906C1006.724211533727,1294.2949271870755,998.0644167162963,1468.8414448947844,992.3943266839246,1636.4828100827026C986.724236651553,1804.1241752706208,965.3990544473207,2072.747135013784,960,2160L 1920 2160 L 1920 -1080 Z" fill="url(&quot;#SvgjsLinearGradient2339&quot;)"></path><path d="M1120,-1080C1100.0166710470785,-993.800677671273,1005.1309832124431,-712.8492061027091,1000.1000262824712,-562.8040660276376C995.0690693524992,-412.7589259525662,1077.0975983093992,-301.0557923068091,1089.8142584201685,-179.729159549571C1102.5309185309377,-58.40252679233289,1069.6048283566724,28.398523758468258,1076.3999869470865,165.155730515791C1083.1951455375006,301.9129372731137,1143.9793765428026,492.31423930294216,1130.5852099626527,640.8140809943654C1117.1910433825028,789.3139226857887,1005.7285600547148,951.9983457779979,996.0349874661866,1056.1547806643307C986.3414148776585,1160.3112155506635,1068.780751648068,1129.8262924107696,1072.4237744314837,1265.7526903123626C1076.0667972148995,1401.6790882139555,1009.9637532385943,1722.671949792616,1017.8931241666804,1871.713168073889C1025.8224950947665,2020.7543863551618,1102.9821873611133,2111.9521946789814,1120,2160L 1920 2160 L 1920 -1080 Z" fill="url(&quot;#SvgjsLinearGradient2340&quot;)"></path><path d="M1280,-1080C1293.1782098976594,-1032.6570949519498,1349.3658538444115,-944.8320872419397,1359.069259385956,-795.9425697116985C1368.7726649275005,-647.0530521814574,1359.3844255827603,-352.10515754795654,1338.2204332492663,-186.66289481855313C1317.0564409157723,-21.22063208914969,1235.3338406507348,89.74409444491518,1232.085305384992,196.71100666472216C1228.836770119249,303.67791888452916,1306.679877016384,332.7645481542759,1318.7292216548087,455.13857850028876C1330.7785662932336,577.5126088463016,1329.545675909929,760.8340222203386,1304.3813732155404,930.9551887407995C1279.2170705211518,1101.0763552612605,1178.9222874524369,1334.6242815877592,1167.7434054884764,1475.8655776230542C1156.5645235245158,1617.106873658349,1218.59864901319,1664.380561223078,1237.3080814317773,1778.4029649525692C1256.0175138503646,1892.4253686820603,1272.8846802386295,2096.4004941587614,1280,2160L 1920 2160 L 1920 -1080 Z" fill="url(&quot;#SvgjsLinearGradient2341&quot;)"></path><path d="M1440,-1080C1448.920916531486,-981.9752804055336,1491.010517136256,-685.0101932575108,1493.5254991889153,-491.85168243320106C1496.0404812415745,-298.69317160889136,1454.6398598211304,-89.80825672543537,1455.089892315955,78.95106494585823C1455.5399248107797,247.71038661715184,1517.2351737144622,354.6821679261801,1496.2256941578628,520.7042475945606C1475.2162146012633,686.726327262941,1338.6794443999963,892.7058660151223,1329.0330149763583,1075.083542956141C1319.3865855527204,1257.4612198971597,1419.8526201120942,1434.150899733363,1438.3471176160344,1614.9703092406728C1456.8416151199747,1795.7897187479825,1439.7245196026724,2069.161718206779,1440,2160L 1920 2160 L 1920 -1080 Z" fill="url(&quot;#SvgjsLinearGradient2342&quot;)"></path><path d="M1600,-1080C1607.1107550870506,-983.3961194918093,1631.2648550995727,-730.4928165616625,1642.664530522303,-500.3767169508552C1654.0642059450333,-270.26061734004793,1656.6952676520839,94.49663223816233,1668.3980525363822,300.69659766484347C1680.1008374206806,506.8965630915246,1720.388047575422,550.839340076969,1712.8812398280927,736.8230756092316C1705.3744320807634,922.8068111414942,1642.170746023755,1179.4028567932908,1623.3572060524064,1416.5990108584188C1604.5436660810576,1653.7951649235467,1603.892867675401,2036.0998351430699,1600,2160L 1920 2160 L 1920 -1080 Z" fill="url(&quot;#SvgjsLinearGradient2343&quot;)"></path><path d="M1760,-1080C1751.7075635807025,-1006.452118796348,1694.709697290736,-790.7403952165873,1710.2453814842156,-638.712712778088C1725.7810656776953,-486.6850303395886,1853.5631970212717,-317.21810060136215,1853.214105160878,-167.8339053690036C1852.8650133004844,-18.449710136645024,1741.321439840579,148.39515587094286,1708.150830321854,257.59245861606337C1674.9802208031292,366.7897613611839,1631.4715179320926,376.14776307798155,1654.1904480485287,487.3499111017194C1676.9093781649647,598.5520591254572,1836.4758847940775,788.6328398843062,1844.4644110204697,924.8053467584904C1852.452937246862,1060.9778536326744,1724.5489858496344,1161.72717867379,1702.1216054068811,1304.384952346824C1679.694224964128,1447.0427260198583,1700.2537292650975,1638.1494808544994,1709.9001283639507,1780.7519887966953C1719.5465274628039,1923.3544967388912,1751.6500213939917,2096.7919981327827,1760,2160L 1920 2160 L 1920 -1080 Z" fill="url(&quot;#SvgjsLinearGradient2344&quot;)"></path></g><defs><linearGradient x1="0.1" y1="0" x2="0" y2="1" id="SvgjsLinearGradient2333"><stop stop-color="#204a87" offset="0"></stop><stop stop-color="#205b87" offset="0"></stop></linearGradient><linearGradient x1="0.1" y1="0" x2="0" y2="1" id="SvgjsLinearGradient2334"><stop stop-color="#2658a0" offset="0"></stop><stop stop-color="#266ca0" offset="0.08333333333333333"></stop></linearGradient><linearGradient x1="0.1" y1="0" x2="0" y2="1" id="SvgjsLinearGradient2335"><stop stop-color="#2c66b9" offset="0"></stop><stop stop-color="#2c7db9" offset="0.16666666666666666"></stop></linearGradient><linearGradient x1="0.1" y1="0" x2="0" y2="1" id="SvgjsLinearGradient2336"><stop stop-color="#3574cf" offset="0"></stop><stop stop-color="#358ecf" offset="0.25"></stop></linearGradient><linearGradient x1="0.1" y1="0" x2="0" y2="1" id="SvgjsLinearGradient2337"><stop stop-color="#4e85d5" offset="0"></stop><stop stop-color="#4e9bd5" offset="0.3333333333333333"></stop></linearGradient><linearGradient x1="0.1" y1="0" x2="0" y2="1" id="SvgjsLinearGradient2338"><stop stop-color="#6797db" offset="0"></stop><stop stop-color="#67aadb" offset="0.4166666666666667"></stop></linearGradient><linearGradient x1="0.1" y1="0" x2="0" y2="1" id="SvgjsLinearGradient2339"><stop stop-color="#81a8e1" offset="0"></stop><stop stop-color="#81b8e1" offset="0.5"></stop></linearGradient><linearGradient x1="0.1" y1="0" x2="0" y2="1" id="SvgjsLinearGradient2340"><stop stop-color="#9ab9e7" offset="0"></stop><stop stop-color="#9ac6e7" offset="0.5833333333333334"></stop></linearGradient><linearGradient x1="0.1" y1="0" x2="0" y2="1" id="SvgjsLinearGradient2341"><stop stop-color="#b3cbed" offset="0"></stop><stop stop-color="#b3d5ed" offset="0.6666666666666666"></stop></linearGradient><linearGradient x1="0.1" y1="0" x2="0" y2="1" id="SvgjsLinearGradient2342"><stop stop-color="#ccdcf3" offset="0"></stop><stop stop-color="#cce2f3" offset="0.75"></stop></linearGradient><linearGradient x1="0.1" y1="0" x2="0" y2="1" id="SvgjsLinearGradient2343"><stop stop-color="#e5edf9" offset="0"></stop><stop stop-color="#e5f0f9" offset="0.8333333333333334"></stop></linearGradient><linearGradient x1="0.1" y1="0" x2="0" y2="1" id="SvgjsLinearGradient2344"><stop stop-color="#fefeff" offset="0"></stop><stop stop-color="#fefeff" offset="0.9166666666666666"></stop></linearGradient></defs></svg>